<?xml version="1.0" encoding="utf-8"?>
<!-- Generator: Adobe Illustrator 18.1.1, SVG Export Plug-In . SVG Version: 6.00 Build 0)  -->
<svg version="1.2" baseProfile="tiny" id="Layer_1" xmlns="http://www.w3.org/2000/svg" xmlns:xlink="http://www.w3.org/1999/xlink"
	 x="0px" y="0px" width="46.4px" height="45.9px" viewBox="0 0 46.4 45.9" xml:space="preserve">
<g>
	<path fill="#FFFFFF" d="M24.5,33.1l-8,8c-2,2-4.2,2.8-6.1,2.8c-1.7,0-3.3-0.6-4.5-1.8l-2-2l0,0C2.7,38.8,2,37,2,35.3
		c0-1.8,0.7-3.5,1.9-4.8l0,0l11-11c2-2,3.8-2.7,5.4-2.7c1.1,0,2.2,0.3,3.3,1c1,0.6,2,1.5,2.8,2.6c0.3,0.4,1,0.5,1.4,0.2
		c0.4-0.3,0.5-1,0.2-1.4c-0.9-1.2-2.1-2.3-3.3-3.1c-1.3-0.8-2.7-1.3-4.3-1.3c-2.3,0-4.6,1-6.9,3.3l-11,11l0,0C0.8,30.8,0,33,0,35.3
		c0,2.3,0.8,4.5,2.5,6.2l0,0l2,2l0,0c1.6,1.6,3.7,2.4,5.9,2.4c2.5,0,5.2-1.1,7.5-3.4l8-8c0.4-0.4,0.4-1,0-1.4
		C25.5,32.7,24.9,32.7,24.5,33.1L24.5,33.1z"/>
	<path fill="#FFFFFF" d="M21.9,12.5l9-9l0,0c1-1,2.3-1.5,3.8-1.5c2,0,4.3,0.9,5.8,2.5l2,2l0,0c1.3,1.3,1.9,2.8,1.9,4.3
		c0,1.5-0.6,3-1.9,4.3l-12,12c-1.1,1.1-2.4,1.5-3.7,1.5c-1.9,0-3.8-0.9-4.7-2.4c-0.3-0.5-0.9-0.6-1.4-0.3c-0.5,0.3-0.6,0.9-0.3,1.4
		c1.4,2.1,3.9,3.2,6.4,3.3c1.8,0,3.7-0.6,5.2-2.1l12-12l0,0c1.6-1.6,2.5-3.7,2.5-5.7c0-2-0.9-4.1-2.5-5.7l0,0l-2-2l0,0
		C40,1.2,37.4,0,34.7,0c-1.9,0-3.8,0.6-5.2,2.1l-9,9c-0.4,0.4-0.4,1,0,1.4C20.9,12.9,21.5,12.9,21.9,12.5L21.9,12.5z"/>
</g>
</svg>
