<svg xmlns="http://www.w3.org/2000/svg" xmlns:sketch="http://www.bohemiancoding.com/sketch/ns" width="99" height="136" viewBox="0 0 99 136"><style>.style0{fill: none;fill-rule: evenodd;}.style1{fill: #F7F7F7;}</style><title>Untitled 2</title><g sketch:type="MSLayerGroup" class="style1"><path d="M30.501 40c-1.312 0-2.401-1-2.501-2.3-.4-11.4 2.3-14 7.4-17.9 1.176-.9 2.5-2 4-3.3 5.936-5.5 4.6-13.3 4.5-13.6-.217-1.3.7-2.6 2-2.9 1.326-.2 2.6.7 2.9 2 .036.4 1.9 10.7-6.1 18.1-1.589 1.4-3 2.6-4.3 3.5-4.114 3.2-5.8 4.5-5.4 13.9.009 1.3-1 2.4-2.4 2.5h-.1m16.911 1c-1.279 0-2.311-1-2.411-2.3-.262-8.7 1.6-10.8 4.9-13.7.781-.8 1.6-1.5 2.5-2.5 3.593-3.8 2.7-9.6 2.7-9.7-.173-1.3.7-2.6 2-2.8 1.304-.2 2.5.7 2.7 2 .094.4 1.3 8.2-3.9 13.9-1.087 1.1-2 2-2.8 2.7-2.581 2.3-3.5 3.1-3.3 9.9.042 1.3-1 2.5-2.3 2.5h-.1" sketch:type="MSShapeGroup"/><path d="M99 85.5c0-6.7-1.9-11.2-5.7-13.4-2.982-1.7-6.8-1.8-11.4-.4-.828.3-1.6.5-2.3.8.008-.4.1-.8.1-1.3 1.068-11.4 1-19.5 1-19.8l-.044-2.4h-80.656l.086 2.5c2.505 73.5 25.414 83.9 26.414 84.3l.408.2h28.141l.667-.5c6.334-5.2 11.584-13.3 15.584-24.1 9.744-1.2 27.7-8.1 27.7-25.9zm-23-31.5c-.039 2.6-.2 7-.6 12.4-10.254 7-23.4 4.5-36.1 2.1-2.1-.4-4.1-.8-6.1-1.1-10.534-1.9-21.4-.3-27.3.8-.389-4.4-.7-9.1-.9-14.2h71zm-23.319 77h-25.183c-2.437-1.5-16.598-12.1-21.498-58.3 5.338-1.1 15.9-2.6 25.8-1 1.952.4 3.9.7 6 1.1 6.478 1.3 13.4 2.6 20.1 2.6 5.589 0 11-.9 16.1-3.4-1.083 10.9-2.8 20.8-5.3 29.4-3.846 13.8-9.2 23.8-16 29.6h-.019zm29.863-27.5c-3.573 1.9-7.144 3-9.544 3.5.338-1.1.7-2.2 1-3.3 2.061-7.5 3.7-15.9 4.8-25.1 2.233-1.2 8.4-3.9 11.9-1.9 2.194 1.3 3.3 4.4 3.3 9.3 0 7.6-3.9 13.5-11.5 17.5h.044z" sketch:type="MSShapeGroup"/></g></svg>