<svg version="1.2" baseProfile="tiny" xmlns="http://www.w3.org/2000/svg" width="205.5" height="30.7" viewBox="0 0 205.5 30.7"><path d="M43.2 26.6l-.2-.2-.2.2c-.5.5-1.1.9-1.8 1.2-.7.3-1.5.5-2.3.5-.9 0-1.7-.2-2.4-.5s-1.3-.8-1.8-1.3c-.5-.6-.9-1.2-1.2-1.9-.3-.7-.4-1.5-.4-2.4 0-.8.1-1.6.4-2.4.3-.7.7-1.4 1.2-1.9s1.1-1 1.8-1.3c.7-.3 1.5-.5 2.4-.5.7 0 1.4.1 2.1.4.7.2 1.3.6 1.7 1.1l.2.2.6-.5.2-.2-.2-.2c-.6-.6-1.3-1-2.1-1.3-.8-.3-1.6-.4-2.5-.4-1 0-1.9.2-2.8.5-.8.4-1.6.9-2.2 1.5-.6.6-1.1 1.4-1.4 2.3-.3.9-.5 1.8-.5 2.8 0 1 .2 2 .5 2.8.3.9.8 1.6 1.4 2.3.6.6 1.3 1.1 2.2 1.5.8.4 1.8.5 2.8.5 1 0 1.9-.2 2.8-.5.8-.3 1.5-.8 2.1-1.4l.2-.2-.2-.3-.4-.4zm-1.9-11.1zm.2 13.3zm-5.5-13.2zm11.4 1.5zm11.5 2.2c-.3-.9-.8-1.6-1.4-2.3-.6-.6-1.4-1.1-2.2-1.5-.9-.3-1.8-.5-2.8-.5-1 0-1.9.2-2.8.5-.9.3-1.6.8-2.2 1.5-.6.6-1.1 1.4-1.4 2.2-.3.9-.5 1.8-.5 2.9 0 1 .2 2 .5 2.9.3.9.8 1.6 1.4 2.3.6.6 1.4 1.1 2.2 1.5.9.4 1.8.5 2.8.5 1 0 2-.2 2.8-.5.9-.4 1.6-.8 2.2-1.5.6-.6 1.1-1.4 1.4-2.3.3-.9.5-1.8.5-2.9 0-.9-.1-1.9-.5-2.8zm-12 5.3c-.3-.7-.4-1.5-.4-2.4 0-.8.1-1.6.4-2.4.3-.7.7-1.4 1.2-1.9s1.1-1 1.9-1.3c.7-.3 1.6-.5 2.5-.5.9 0 1.7.2 2.5.5.7.3 1.4.8 1.9 1.3s.9 1.2 1.2 1.9c.3.7.4 1.5.4 2.4 0 .9-.1 1.7-.4 2.4-.3.7-.7 1.4-1.2 1.9-.5.6-1.1 1-1.9 1.3-.7.3-1.6.5-2.5.5-.9 0-1.7-.2-2.5-.5-.7-.3-1.4-.8-1.9-1.3s-.9-1.2-1.2-1.9zm-.9-5.3zm17 9.7h1v-6.4h6.4v-1h-6.4v-5.2h6.9v-1h-7.9zm11.2 0h1.1v-6.4h6.4v-1h-6.4v-5.2h6.8v-1h-7.9zm12.3-6.5h6.6v-1h-6.6v-5.1h7v-1h-8.1v13.6h8.4v-1h-7.3zm11.9 0h6.7v-1h-6.7v-5.1h7.1v-1h-8.1v13.6h8.4v-1h-7.4zm23.8-2.4zm-4.5.6zm-.8-1.7zm9.5 2.7h-1.1l-1.9 3.6-3.4-3.6c1-.5 1.7-1.1 2.2-1.6.6-.6.9-1.4.9-2.2 0-.8-.3-1.4-.8-2-.6-.6-1.3-.8-2.2-.8-.9 0-1.7.3-2.3.9-.6.6-.9 1.3-.9 2.2 0 .3 0 .6.1.8.1.3.1.5.3.8.1.3.3.6.5.9.2.2.4.5.6.8-.8.4-1.5.9-2 1.5-.6.7-.9 1.5-.9 2.5 0 .6.1 1.1.3 1.6.2.5.5.9.8 1.2.4.3.8.6 1.3.8.5.2 1 .3 1.5.3 1.7 0 3.1-.8 4.2-2.4l1.9 2h1.4l-2.9-3 2.4-4.3zm-5 6.1c-.6.4-1.2.6-1.9.6-.4 0-.8-.1-1.2-.2-.4-.1-.7-.3-.9-.6-.3-.2-.5-.5-.6-.9-.2-.3-.2-.8-.2-1.2 0-.4.1-.8.2-1.1.1-.3.3-.6.6-.9.2-.3.5-.5.9-.7.3-.2.6-.4.9-.5l3.8 4c-.6.6-1.1 1.1-1.6 1.5zm0-11.2c.4.3.6.8.6 1.4 0 .5-.2 1.1-.7 1.6-.4.5-1.1 1-2 1.4-.5-.5-.8-1-1.1-1.4-.2-.4-.4-.9-.4-1.4 0-.6.2-1.1.6-1.5.4-.4.9-.6 1.5-.6s1.1.1 1.5.5zm26 2.6c-.4-.9-.9-1.6-1.6-2.1-.7-.6-1.5-1-2.3-1.2-.9-.3-1.8-.4-2.8-.4h-4v13.5h4c1 0 1.9-.1 2.8-.4.9-.3 1.7-.7 2.3-1.2.7-.5 1.2-1.2 1.6-2.1.4-.8.6-1.8.6-3s-.2-2.2-.6-3.1zm-9.6-2.8h2.8c.9 0 1.8.1 2.6.4.8.3 1.5.6 2 1.1.6.5 1 1.1 1.3 1.8.3.7.5 1.6.5 2.5 0 1-.2 1.8-.5 2.5s-.8 1.3-1.3 1.8c-.6.5-1.2.8-2 1.1-.8.2-1.6.4-2.6.4h-2.8v-11.6zm5.7 12.2zm2.3-1.3zm6.8-4.8h6.6v-1h-6.6v-5.1h7.1v-1h-8.1v13.6h8.3v-1h-7.3zm10.2-5.3zm5.2 5zm2.2 1.8zm-6.5-7.9zm.3 12.7zm5.2-.5zm1-4.3c-.2-.4-.5-.8-.9-1.1-.4-.3-.8-.5-1.3-.7-.5-.2-1-.4-1.6-.6-.4-.1-.7-.2-1.1-.4-.4-.1-.7-.3-.9-.6-.3-.2-.5-.5-.6-.8-.2-.3-.2-.7-.2-1.1 0-.5.1-.8.3-1.2.2-.3.4-.6.7-.8.3-.2.6-.4 1-.5.4-.1.8-.2 1.2-.2.6 0 1.1.1 1.6.3.5.2.9.5 1.2.9l.2.2.6-.6.2-.2-.1-.2c-.4-.5-.9-.9-1.5-1.2-.6-.3-1.3-.4-2-.4-.6 0-1.1.1-1.6.2-.5.2-1 .4-1.4.7-.4.3-.7.7-.9 1.2-.2.5-.4 1-.4 1.6 0 .6.1 1.1.3 1.5.2.4.5.8.8 1.1.3.3.8.5 1.2.7.4.2.9.4 1.5.5l1.2.4c.4.2.7.3 1 .6.3.2.5.5.7.8.2.3.3.7.3 1.1 0 .5-.1.8-.3 1.2-.2.3-.4.6-.7.8-.3.2-.6.4-1 .5-.4.1-.8.2-1.2.2-.6 0-1.2-.1-1.8-.4-.6-.2-1-.6-1.5-1l-.2-.2-.6.5-.2.2.2.2c.5.5 1 1 1.7 1.3.7.3 1.5.5 2.3.5.5 0 1.1-.1 1.6-.2.5-.2 1-.4 1.3-.7.4-.3.7-.7.9-1.2.2-.5.4-1 .4-1.6-.1-.3-.2-.8-.4-1.3zm3.7-8.6v13.6h1.1v-13.6h-.8zm12.2 7.3v.3h3.3v4.4c-.5.2-1 .5-1.6.6-.7.2-1.4.3-2.2.3-1 0-1.8-.2-2.5-.5s-1.4-.8-1.9-1.3c-.5-.6-.9-1.2-1.2-1.9-.3-.7-.4-1.5-.4-2.4 0-.8.1-1.6.4-2.4.3-.7.7-1.4 1.2-1.9s1.1-1 1.9-1.3c.7-.3 1.5-.5 2.4-.5.7 0 1.4.1 2.1.3.7.2 1.3.6 1.7 1l.2.2.6-.6.2-.2-.2-.2c-.6-.5-1.2-.9-2-1.2-.8-.3-1.6-.4-2.6-.4s-2 .2-2.8.5c-.9.4-1.6.9-2.2 1.5-.6.6-1.1 1.4-1.4 2.3-.3.9-.5 1.8-.5 2.8 0 1 .2 1.9.5 2.8.3.9.8 1.6 1.4 2.3.6.6 1.4 1.1 2.2 1.5.9.4 1.8.5 2.9.5 1 0 1.9-.1 2.8-.4.8-.2 1.5-.5 2-.8l.1-.1v-5.9h-4.4v.7zm-6.1-2.9zm8.1-4.3zm-7.6 11.8zm25 1.7v-13.6h-1v11.9l-8.5-11.9h-1.2v13.6h1.1v-11.8l8.5 11.8zm-198.7-20c.3 0 .6-.3.5-.6-.1-2.1.3-2.3 1.2-3.1.3-.2.6-.5 1-.8 1.8-1.7 1.4-4 1.3-4.1 0-.3-.3-.4-.6-.4-.3.1-.5.4-.4.6 0 .1.3 1.8-1 3.1-.4.3-.7.6-.9.8-1.1.9-1.7 1.5-1.6 4-.1.3.2.5.5.5zm3.3-.2c0 .3.3.5.5.5.3 0 .5-.3.5-.6-.1-1.5.2-1.7.8-2.2l.6-.6c1.2-1.3.9-3.1.9-3.1-.1-.3-.3-.5-.6-.5s-.5.3-.5.6c0 0 .2 1.3-.6 2.2-.2.2-.4.4-.6.5-.7.7-1.1 1.2-1 3.2zm11 7.4c-.7-.4-1.5-.4-2.6-.1-.2.1-.4.1-.5.2v-.3c.2-2.6.2-4.4.2-4.5v-.5h-18.2v.6c.6 16.6 5.8 18.9 6 19h6.5l.2-.1c1.4-1.2 2.6-3 3.5-5.4 2.2-.3 6.3-1.8 6.3-5.9-.1-1.5-.5-2.5-1.4-3zm-20-4.1h16c0 .6 0 1.5-.1 2.8-2.3 1.6-5.3 1-8.2.5l-1.4-.3c-2.4-.4-4.8-.1-6.2.2.1-1 0-2.1-.1-3.2zm14.6 10.8c-.9 3.1-2.1 5.4-3.7 6.7h-5.7c-.6-.3-3.8-2.7-4.9-13.2 1.2-.2 3.6-.6 5.9-.2.4.1.9.2 1.4.2 1.5.3 3 .6 4.6.6 1.3 0 2.5-.2 3.7-.8-.3 2.5-.7 4.7-1.3 6.7zm3 .2c-.8.4-1.6.7-2.2.8l.2-.7c.5-1.7.8-3.5 1.1-5.6.5-.3 1.9-.9 2.7-.4.5.3.7 1 .7 2.1.1 1.6-.8 2.9-2.5 3.8z" fill="#fff"/></svg>