<svg xmlns:sketch="http://www.bohemiancoding.com/sketch/ns" xmlns="http://www.w3.org/2000/svg" width="416" height="205" viewBox="0 0 416 205"><title>Untitled 3</title><g sketch:type="MSPage" fill="#F7F7F7"><g sketch:type="MSLayerGroup"><path sketch:type="MSShapeGroup" d="M190.5 40c-1.312 0-2.399-1.029-2.452-2.339-.448-11.338 2.206-13.926 7.335-17.871 1.194-.916 2.545-1.956 4.003-3.301 5.949-5.489 4.6-13.284 4.54-13.613-.243-1.319.635-2.589 1.964-2.834 1.335-.247 2.609.616 2.861 1.933.084.435 1.951 10.726-6.021 18.078-1.621 1.495-3.063 2.606-4.337 3.584-4.108 3.161-5.81 4.47-5.439 13.832.054 1.345-1.001 2.477-2.357 2.53l-.097.001m16.911 1c-1.278 0-2.336-1.033-2.381-2.346-.292-8.625 1.563-10.728 4.868-13.703.782-.704 1.593-1.432 2.499-2.41 3.596-3.884 2.744-9.669 2.737-9.727-.207-1.321.675-2.569 1.971-2.783 1.299-.217 2.518.672 2.734 1.99.054.332 1.274 8.187-3.974 13.854-1.054 1.137-1.986 1.976-2.81 2.717-2.538 2.283-3.487 3.138-3.26 9.894.045 1.341-.984 2.466-2.301 2.511l-.083.003"/><path sketch:type="MSShapeGroup" d="M259 85.499c0-6.699-1.928-11.203-5.732-13.389-2.949-1.695-6.766-1.839-11.344-.424-.852.265-1.646.559-2.359.848l.135-1.304c1.068-11.386.989-19.484.984-19.823l-.028-2.407h-80.656l.086 2.518c2.505 73.487 25.4 83.889 26.373 84.295l.449.187h28.141l.666-.543c6.335-5.138 11.562-13.21 15.603-24.044 9.726-1.225 27.682-8.142 27.682-25.914zm-23-31.499c-.039 2.553-.166 6.951-.562 12.422-10.293 7.013-23.411 4.501-36.122 2.062-2.116-.407-4.115-.79-6.113-1.132-10.537-1.804-21.439-.267-27.309.894-.383-4.445-.687-9.185-.894-14.246h71zm-23.319 77h-25.183c-2.437-1.5-16.598-12.121-21.498-58.306 5.338-1.067 15.896-2.638 25.818-.955 1.935.327 3.895.7 5.969 1.093 6.491 1.235 13.391 2.548 20.15 2.548 5.551 0 11.008-.887 16.062-3.426-1.083 10.938-2.85 20.848-5.268 29.448-3.877 13.801-9.276 23.75-16.05 29.598zm29.862-27.453c-3.572 1.889-7.188 2.923-9.543 3.453.338-1.096.668-2.206.986-3.35 2.074-7.472 3.682-15.869 4.81-25.01 2.237-1.269 8.433-3.936 11.917-1.898 2.182 1.274 3.287 4.406 3.287 9.307 0 7.593-3.855 13.482-11.457 17.498z"/></g><text transform="translate(-2 204)" font-family="'AvenirNext-Regular'" font-size="48">COFFEE &amp; DESIGN</text></g></svg>