<svg width="207" height="31" viewBox="0 0 207 31" xmlns="http://www.w3.org/2000/svg" xmlns:sketch="http://www.bohemiancoding.com/sketch/ns"><title>Untitled 2</title><g sketch:type="MSLayerGroup" fill="none"><path d="M44.44 27.489c-.551.584-1.223 1.043-2.015 1.376-.792.334-1.68.501-2.664.501-.967 0-1.856-.172-2.665-.513-.809-.343-1.509-.82-2.101-1.429-.592-.61-1.051-1.337-1.376-2.181-.325-.844-.488-1.759-.488-2.745 0-.985.163-1.9.488-2.744.325-.844.784-1.57 1.376-2.181.592-.609 1.292-1.086 2.101-1.429.809-.341 1.698-.513 2.665-.513.834 0 1.638.141 2.414.426.776.283 1.447.7 2.014 1.25l-.4.376c-.484-.501-1.097-.876-1.839-1.126-.742-.25-1.472-.375-2.189-.375-.901 0-1.726.167-2.477.5-.75.334-1.393.784-1.927 1.35-.533.568-.946 1.24-1.238 2.015-.292.775-.438 1.597-.438 2.464s.146 1.688.438 2.465c.292.775.701 1.45 1.226 2.026.526.575 1.163 1.029 1.914 1.363.751.334 1.584.5 2.502.5.867 0 1.672-.158 2.414-.474.742-.318 1.372-.751 1.889-1.302l.376.4z" fill="#3A3B39" sketch:type="MSShapeGroup"/><path d="M44.44 27.489c-.551.584-1.223 1.043-2.015 1.376-.792.334-1.68.501-2.664.501-.967 0-1.856-.172-2.665-.513-.809-.343-1.509-.82-2.101-1.429-.592-.61-1.051-1.337-1.376-2.181-.325-.844-.488-1.759-.488-2.745 0-.985.163-1.9.488-2.744.325-.844.784-1.57 1.376-2.181.592-.609 1.292-1.086 2.101-1.429.809-.341 1.698-.513 2.665-.513.834 0 1.638.141 2.414.426.776.283 1.447.7 2.014 1.25l-.4.376c-.484-.501-1.097-.876-1.839-1.126-.742-.25-1.472-.375-2.189-.375-.901 0-1.726.167-2.477.5-.75.334-1.393.784-1.927 1.35-.533.568-.946 1.24-1.238 2.015-.292.775-.438 1.597-.438 2.464s.146 1.688.438 2.465c.292.775.701 1.45 1.226 2.026.526.575 1.163 1.029 1.914 1.363.751.334 1.584.5 2.502.5.867 0 1.672-.158 2.414-.474.742-.318 1.372-.751 1.889-1.302l.376.4z" stroke="#3A3B39" stroke-width=".5" sketch:type="MSShapeGroup"/><path d="M60.175 22.486c0 1-.162 1.922-.487 2.764-.326.843-.789 1.568-1.389 2.177s-1.314 1.085-2.139 1.426c-.825.341-1.739.513-2.74.513-.984 0-1.888-.172-2.714-.513-.826-.341-1.535-.817-2.126-1.426-.593-.609-1.056-1.334-1.389-2.177-.334-.842-.501-1.764-.501-2.764 0-1.001.167-1.922.501-2.764.333-.843.796-1.565 1.389-2.164.591-.601 1.3-1.068 2.126-1.402.826-.333 1.73-.5 2.714-.5 1.001 0 1.915.167 2.74.5.825.334 1.539.801 2.139 1.402.6.599 1.063 1.321 1.389 2.164.325.842.487 1.763.487 2.764zm-.55 0c0-.867-.142-1.689-.425-2.464-.284-.776-.697-1.447-1.239-2.014-.542-.568-1.197-1.018-1.963-1.352-.768-.333-1.627-.5-2.578-.5-.95 0-1.81.167-2.576.5-.768.334-1.418.784-1.952 1.352-.534.567-.942 1.238-1.226 2.014-.284.775-.425 1.597-.425 2.464 0 .884.141 1.709.425 2.477.284.767.692 1.442 1.226 2.026.534.584 1.184 1.042 1.952 1.376.766.334 1.626.5 2.576.5.951 0 1.81-.166 2.578-.5.766-.334 1.421-.792 1.963-1.376.542-.584.955-1.259 1.239-2.026.283-.768.425-1.593.425-2.477z" fill="#3A3B39" sketch:type="MSShapeGroup"/><path d="M60.175 22.486c0 1-.162 1.922-.487 2.764-.326.843-.789 1.568-1.389 2.177s-1.314 1.085-2.139 1.426c-.825.341-1.739.513-2.74.513-.984 0-1.888-.172-2.714-.513-.826-.341-1.535-.817-2.126-1.426-.593-.609-1.056-1.334-1.389-2.177-.334-.842-.501-1.764-.501-2.764 0-1.001.167-1.922.501-2.764.333-.843.796-1.565 1.389-2.164.591-.601 1.3-1.068 2.126-1.402.826-.333 1.73-.5 2.714-.5 1.001 0 1.915.167 2.74.5.825.334 1.539.801 2.139 1.402.6.599 1.063 1.321 1.389 2.164.325.842.487 1.763.487 2.764zm-.55 0c0-.867-.142-1.689-.425-2.464-.284-.776-.697-1.447-1.239-2.014-.542-.568-1.197-1.018-1.963-1.352-.768-.333-1.627-.5-2.578-.5-.95 0-1.81.167-2.576.5-.768.334-1.418.784-1.952 1.352-.534.567-.942 1.238-1.226 2.014-.284.775-.425 1.597-.425 2.464 0 .884.141 1.709.425 2.477.284.767.692 1.442 1.226 2.026.534.584 1.184 1.042 1.952 1.376.766.334 1.626.5 2.576.5.951 0 1.81-.166 2.578-.5.766-.334 1.421-.792 1.963-1.376.542-.584.955-1.259 1.239-2.026.283-.768.425-1.593.425-2.477z" stroke="#3A3B39" stroke-width=".5" sketch:type="MSShapeGroup"/><path d="M64.778 16.507v5.603h6.405v.501h-6.405v6.405h-.55v-13.01h7.431v.501h-6.881z" fill="#3A3B39" sketch:type="MSShapeGroup"/><path d="M64.778 16.507v5.603h6.405v.501h-6.405v6.405h-.55v-13.01h7.431v.501h-6.881z" stroke="#3A3B39" stroke-width=".5" sketch:type="MSShapeGroup"/><path d="M76.012 16.507v5.603h6.405v.501h-6.405v6.405h-.551v-13.01h7.431v.501h-6.88z" fill="#3A3B39" sketch:type="MSShapeGroup"/><path d="M76.012 16.507v5.603h6.405v.501h-6.405v6.405h-.551v-13.01h7.431v.501h-6.88z" stroke="#3A3B39" stroke-width=".5" sketch:type="MSShapeGroup"/><path d="M86.694 29.016v-13.01h7.606v.501h-7.055v5.504h6.63v.5h-6.63v6.005h7.33v.5h-7.881z" fill="#3A3B39" sketch:type="MSShapeGroup"/><path d="M86.694 29.016v-13.01h7.606v.501h-7.055v5.504h6.63v.5h-6.63v6.005h7.33v.5h-7.881z" stroke="#3A3B39" stroke-width=".5" sketch:type="MSShapeGroup"/><path d="M98.627 29.016v-13.01h7.606v.501h-7.055v5.504h6.63v.5h-6.63v6.005h7.33v.5h-7.881z" fill="#3A3B39" sketch:type="MSShapeGroup"/><path d="M98.627 29.016v-13.01h7.606v.501h-7.055v5.504h6.63v.5h-6.63v6.005h7.33v.5h-7.881z" stroke="#3A3B39" stroke-width=".5" sketch:type="MSShapeGroup"/><path d="M126.473 29.016l-2.002-2.152c-1.051 1.668-2.427 2.502-4.128 2.502-.517 0-1.001-.08-1.451-.238-.45-.158-.842-.392-1.176-.7-.334-.309-.596-.689-.788-1.139-.192-.45-.287-.959-.287-1.525 0-.952.287-1.74.862-2.365.576-.626 1.314-1.155 2.215-1.589-.334-.367-.605-.696-.813-.988-.209-.292-.376-.567-.501-.826-.125-.258-.213-.508-.262-.75-.051-.241-.076-.496-.076-.763 0-.8.271-1.472.813-2.014.542-.542 1.239-.813 2.09-.813.85 0 1.53.25 2.038.75.509.501.764 1.101.764 1.802 0 .801-.263 1.481-.789 2.039-.525.559-1.338 1.13-2.439 1.714l3.828 4.053 2.002-3.753h.6l-2.227 4.102 2.452 2.653h-.725zm-6.43-6.856c-.384.185-.75.393-1.101.626-.35.234-.655.496-.913.788-.259.292-.463.617-.613.976-.15.359-.225.763-.225 1.214 0 .5.083.942.25 1.325.166.384.396.709.688.976.291.267.634.471 1.026.613.391.141.813.213 1.263.213.784 0 1.48-.208 2.089-.626.609-.416 1.139-1.017 1.589-1.801l-4.053-4.304zm3.177-3.877c0-.65-.217-1.172-.65-1.564-.434-.392-.985-.588-1.652-.588-.633 0-1.175.218-1.625.65-.451.435-.676.993-.676 1.677 0 .551.129 1.064.387 1.538.259.476.664 1.014 1.214 1.614 1.034-.516 1.793-1.046 2.277-1.588.483-.542.725-1.122.725-1.739z" fill="#3A3B39" sketch:type="MSShapeGroup"/><path d="M126.473 29.016l-2.002-2.152c-1.051 1.668-2.427 2.502-4.128 2.502-.517 0-1.001-.08-1.451-.238-.45-.158-.842-.392-1.176-.7-.334-.309-.596-.689-.788-1.139-.192-.45-.287-.959-.287-1.525 0-.952.287-1.74.862-2.365.576-.626 1.314-1.155 2.215-1.589-.334-.367-.605-.696-.813-.988-.209-.292-.376-.567-.501-.826-.125-.258-.213-.508-.262-.75-.051-.241-.076-.496-.076-.763 0-.8.271-1.472.813-2.014.542-.542 1.239-.813 2.09-.813.85 0 1.53.25 2.038.75.509.501.764 1.101.764 1.802 0 .801-.263 1.481-.789 2.039-.525.559-1.338 1.13-2.439 1.714l3.828 4.053 2.002-3.753h.6l-2.227 4.102 2.452 2.653h-.725zm-6.43-6.856c-.384.185-.75.393-1.101.626-.35.234-.655.496-.913.788-.259.292-.463.617-.613.976-.15.359-.225.763-.225 1.214 0 .5.083.942.25 1.325.166.384.396.709.688.976.291.267.634.471 1.026.613.391.141.813.213 1.263.213.784 0 1.48-.208 2.089-.626.609-.416 1.139-1.017 1.589-1.801l-4.053-4.304zm3.177-3.877c0-.65-.217-1.172-.65-1.564-.434-.392-.985-.588-1.652-.588-.633 0-1.175.218-1.625.65-.451.435-.676.993-.676 1.677 0 .551.129 1.064.387 1.538.259.476.664 1.014 1.214 1.614 1.034-.516 1.793-1.046 2.277-1.588.483-.542.725-1.122.725-1.739z" stroke="#3A3B39" stroke-width=".5" sketch:type="MSShapeGroup"/><path d="M148.764 22.56c0 1.119-.188 2.082-.563 2.89-.375.81-.88 1.477-1.514 2.002-.633.525-1.384.917-2.251 1.176-.868.259-1.785.388-2.752.388h-3.728v-13.01h3.728c.967 0 1.881.13 2.74.388.858.258 1.609.655 2.251 1.188.641.534 1.151 1.214 1.526 2.039.375.826.563 1.806.563 2.939zm-10.258-6.053v12.009h3.053c.951 0 1.835-.125 2.652-.376.816-.25 1.521-.621 2.114-1.114.592-.491 1.055-1.108 1.388-1.85.334-.742.501-1.615.501-2.616 0-1-.167-1.879-.501-2.638-.333-.759-.796-1.389-1.388-1.89-.593-.5-1.298-.879-2.114-1.138-.817-.258-1.701-.387-2.652-.387h-3.053z" fill="#3A3B39" sketch:type="MSShapeGroup"/><path d="M148.764 22.56c0 1.119-.188 2.082-.563 2.89-.375.81-.88 1.477-1.514 2.002-.633.525-1.384.917-2.251 1.176-.868.259-1.785.388-2.752.388h-3.728v-13.01h3.728c.967 0 1.881.13 2.74.388.858.258 1.609.655 2.251 1.188.641.534 1.151 1.214 1.526 2.039.375.826.563 1.806.563 2.939zm-10.258-6.053v12.009h3.053c.951 0 1.835-.125 2.652-.376.816-.25 1.521-.621 2.114-1.114.592-.491 1.055-1.108 1.388-1.85.334-.742.501-1.615.501-2.616 0-1-.167-1.879-.501-2.638-.333-.759-.796-1.389-1.388-1.89-.593-.5-1.298-.879-2.114-1.138-.817-.258-1.701-.387-2.652-.387h-3.053z" stroke="#3A3B39" stroke-width=".5" sketch:type="MSShapeGroup"/><path d="M152.816 29.016v-13.01h7.606v.501h-7.055v5.504h6.63v.5h-6.63v6.005h7.33v.5h-7.881z" fill="#3A3B39" sketch:type="MSShapeGroup"/><path d="M152.816 29.016v-13.01h7.606v.501h-7.055v5.504h6.63v.5h-6.63v6.005h7.33v.5h-7.881z" stroke="#3A3B39" stroke-width=".5" sketch:type="MSShapeGroup"/><path d="M171.255 25.863c0 .568-.108 1.068-.325 1.501-.217.434-.505.801-.864 1.101-.358.301-.78.525-1.263.676-.484.15-.985.225-1.501.225-.801 0-1.534-.146-2.201-.438-.668-.291-1.218-.697-1.652-1.213l.425-.375c.434.483.947.85 1.539 1.1.592.25 1.214.375 1.864.375.451 0 .884-.062 1.301-.187.416-.125.779-.313 1.088-.563.309-.25.559-.559.751-.925.191-.368.287-.792.287-1.277 0-.5-.096-.917-.287-1.251-.192-.333-.45-.617-.775-.85-.326-.234-.693-.429-1.102-.588-.408-.158-.821-.304-1.238-.438-.517-.167-.997-.341-1.439-.525-.442-.184-.825-.413-1.15-.689-.325-.275-.58-.604-.764-.988-.183-.383-.274-.85-.274-1.4 0-.551.107-1.043.325-1.477.216-.433.508-.801.875-1.1.367-.301.792-.53 1.276-.689.484-.158.993-.237 1.526-.237.701 0 1.343.134 1.926.4.585.267 1.06.634 1.426 1.101l-.425.375c-.333-.434-.754-.763-1.263-.988-.509-.225-1.071-.337-1.689-.337-.433 0-.855.062-1.263.187-.41.125-.772.313-1.088.563-.318.25-.576.559-.776.925-.2.368-.3.792-.3 1.277 0 .483.091.891.275 1.225.184.334.421.618.713.851.292.233.626.43 1.001.588.375.159.754.296 1.138.413.55.184 1.063.371 1.539.562.475.193.887.426 1.238.701.35.275.626.605.826.988.199.384.3.851.3 1.401z" fill="#3A3B39" sketch:type="MSShapeGroup"/><path d="M171.255 25.863c0 .568-.108 1.068-.325 1.501-.217.434-.505.801-.864 1.101-.358.301-.78.525-1.263.676-.484.15-.985.225-1.501.225-.801 0-1.534-.146-2.201-.438-.668-.291-1.218-.697-1.652-1.213l.425-.375c.434.483.947.85 1.539 1.1.592.25 1.214.375 1.864.375.451 0 .884-.062 1.301-.187.416-.125.779-.313 1.088-.563.309-.25.559-.559.751-.925.191-.368.287-.792.287-1.277 0-.5-.096-.917-.287-1.251-.192-.333-.45-.617-.775-.85-.326-.234-.693-.429-1.102-.588-.408-.158-.821-.304-1.238-.438-.517-.167-.997-.341-1.439-.525-.442-.184-.825-.413-1.15-.689-.325-.275-.58-.604-.764-.988-.183-.383-.274-.85-.274-1.4 0-.551.107-1.043.325-1.477.216-.433.508-.801.875-1.1.367-.301.792-.53 1.276-.689.484-.158.993-.237 1.526-.237.701 0 1.343.134 1.926.4.585.267 1.06.634 1.426 1.101l-.425.375c-.333-.434-.754-.763-1.263-.988-.509-.225-1.071-.337-1.689-.337-.433 0-.855.062-1.263.187-.41.125-.772.313-1.088.563-.318.25-.576.559-.776.925-.2.368-.3.792-.3 1.277 0 .483.091.891.275 1.225.184.334.421.618.713.851.292.233.626.43 1.001.588.375.159.754.296 1.138.413.55.184 1.063.371 1.539.562.475.193.887.426 1.238.701.35.275.626.605.826.988.199.384.3.851.3 1.401z" stroke="#3A3B39" stroke-width=".5" sketch:type="MSShapeGroup"/><path d="M175.157 16.006h.551v13.01h-.551v-13.01z" fill="#3A3B39" sketch:type="MSShapeGroup"/><path d="M175.157 16.006h.551v13.01h-.551v-13.01z" stroke="#3A3B39" stroke-width=".5" sketch:type="MSShapeGroup"/><path d="M189.255 29.016c-.792.233-1.689.35-2.69.35-1.017 0-1.942-.176-2.776-.526-.834-.352-1.552-.836-2.151-1.454-.601-.618-1.064-1.35-1.389-2.193-.325-.843-.488-1.751-.488-2.719 0-.97.167-1.871.5-2.707.334-.836.797-1.563 1.388-2.181.592-.618 1.302-1.099 2.127-1.442.826-.341 1.739-.513 2.74-.513.9 0 1.726.141 2.476.426.751.283 1.393.667 1.927 1.15l-.4.4c-.484-.483-1.093-.841-1.827-1.076-.734-.233-1.467-.349-2.201-.349-.934 0-1.781.167-2.54.5-.759.334-1.409.784-1.951 1.35-.542.568-.959 1.236-1.251 2.002-.292.768-.438 1.585-.438 2.452s.142 1.685.425 2.452c.284.767.697 1.443 1.239 2.026.542.584 1.201 1.047 1.976 1.388.776.342 1.655.513 2.64.513.85 0 1.613-.091 2.289-.275.676-.183 1.28-.416 1.813-.7v-4.854h-3.301v-.5h3.852v5.679c-.534.301-1.197.567-1.989.801z" fill="#3A3B39" sketch:type="MSShapeGroup"/><path d="M189.255 29.016c-.792.233-1.689.35-2.69.35-1.017 0-1.942-.176-2.776-.526-.834-.352-1.552-.836-2.151-1.454-.601-.618-1.064-1.35-1.389-2.193-.325-.843-.488-1.751-.488-2.719 0-.97.167-1.871.5-2.707.334-.836.797-1.563 1.388-2.181.592-.618 1.302-1.099 2.127-1.442.826-.341 1.739-.513 2.74-.513.9 0 1.726.141 2.476.426.751.283 1.393.667 1.927 1.15l-.4.4c-.484-.483-1.093-.841-1.827-1.076-.734-.233-1.467-.349-2.201-.349-.934 0-1.781.167-2.54.5-.759.334-1.409.784-1.951 1.35-.542.568-.959 1.236-1.251 2.002-.292.768-.438 1.585-.438 2.452s.142 1.685.425 2.452c.284.767.697 1.443 1.239 2.026.542.584 1.201 1.047 1.976 1.388.776.342 1.655.513 2.64.513.85 0 1.613-.091 2.289-.275.676-.183 1.28-.416 1.813-.7v-4.854h-3.301v-.5h3.852v5.679c-.534.301-1.197.567-1.989.801z" stroke="#3A3B39" stroke-width=".5" sketch:type="MSShapeGroup"/><path d="M205.505 29.016l-8.807-12.259h-.05v12.259h-.55v-13.01h.751l8.805 12.259h.051v-12.259h.55v13.01h-.75z" fill="#3A3B39" sketch:type="MSShapeGroup"/><path d="M205.505 29.016l-8.807-12.259h-.05v12.259h-.55v-13.01h.751l8.805 12.259h.051v-12.259h.55v13.01h-.75z" stroke="#3A3B39" stroke-width=".5" sketch:type="MSShapeGroup"/><path d="M13.503 15.455c-1.648 0-3.338-.334-4.927-.648-.459-.091-.906-.179-1.339-.257-2.756-.492-5.723.146-6.607.364 1.328 13.002 5.459 15.141 5.459 15.141h6.261c1.991-1.707 3.278-4.953 4.109-8.065.7-2.615 1.075-5.354 1.278-7.604-1.307.797-2.752 1.069-4.234 1.069" fill="#3EB5A4" sketch:type="MSShapeGroup"/><path d="M7.784 9.343c-.294 0-.537-.232-.549-.528-.101-2.562.494-3.146 1.643-4.037.267-.207.569-.442.896-.746 1.333-1.24 1.03-3 1.017-3.075-.054-.297.142-.584.44-.64.299-.055.584.14.641.437.019.098.437 2.422-1.349 4.083-.362.338-.686.589-.971.81-.92.714-1.301 1.009-1.218 3.124.012.304-.224.56-.528.571l-.022.001m3.831.268c-.295 0-.539-.234-.549-.531-.067-1.953.361-2.429 1.123-3.102.18-.16.367-.325.576-.546.829-.879.633-2.189.631-2.202-.048-.299.156-.581.454-.63.3-.049.581.152.631.451.013.075.294 1.853-.916 3.136-.243.258-.458.448-.648.615-.585.517-.804.711-.752 2.24.011.303-.227.558-.53.568l-.02.001" fill="#3A3B39" sketch:type="MSShapeGroup"/><path d="M23.425 19.553c0-1.513-.437-2.53-1.298-3.024-.668-.383-1.533-.415-2.57-.095-.193.059-.373.125-.534.191l.031-.295c.242-2.571.224-4.4.223-4.476l-.007-.544h-18.268l.019.569c.567 16.596 5.753 18.944 5.974 19.036l.101.043h6.374l.151-.123c1.435-1.16 2.619-2.983 3.534-5.43 2.203-.277 6.27-1.838 6.27-5.852zm-5.252-7.143c-.008.567-.037 1.544-.126 2.76-2.325 1.557-5.287 1-8.157.458-.477-.091-.929-.176-1.38-.252-2.379-.4-4.841-.059-6.166.199-.087-.988-.155-2.041-.202-3.165h16.031zm-5.097 17.448h-5.732c-.555-.339-3.778-2.74-4.893-13.181 1.215-.241 3.618-.597 5.876-.216.441.074.887.158 1.359.247 1.477.279 3.048.576 4.587.576 1.264 0 2.506-.2 3.656-.774-.246 2.473-.648 4.713-1.199 6.657-.883 3.119-2.112 5.369-3.654 6.691zm6.652-6.415c-.81.42-1.63.65-2.163.768l.223-.745c.471-1.661.835-3.528 1.091-5.561.507-.282 1.911-.874 2.701-.421.494.283.745.979.745 2.069 0 1.688-.874 2.997-2.597 3.89z" fill="#3A3B39" sketch:type="MSShapeGroup"/></g></svg>